<?xml version="1.0" encoding="UTF-8" standalone="no"?>
<svg
   xmlns:dc="http://purl.org/dc/elements/1.1/"
   xmlns:cc="http://creativecommons.org/ns#"
   xmlns:rdf="http://www.w3.org/1999/02/22-rdf-syntax-ns#"
   xmlns:svg="http://www.w3.org/2000/svg"
   xmlns="http://www.w3.org/2000/svg"
   xmlns:sodipodi="http://sodipodi.sourceforge.net/DTD/sodipodi-0.dtd"
   xmlns:inkscape="http://www.inkscape.org/namespaces/inkscape"
   aria-hidden="true"
   focusable="false"
   data-prefix="fad"
   data-icon="paragraph"
   class="svg-inline--fa fa-paragraph fa-w-14"
   role="img"
   viewBox="0 0 640 640"
   version="1.1"
   id="svg5694"
   sodipodi:docname="p-icon.svg"
   width="640"
   height="640"
   inkscape:version="0.92.2 (5c3e80d, 2017-08-06)">
  <metadata
     id="metadata5700">
    <rdf:RDF>
      <cc:Work
         rdf:about="">
        <dc:format>image/svg+xml</dc:format>
        <dc:type
           rdf:resource="http://purl.org/dc/dcmitype/StillImage" />
        <dc:title></dc:title>
      </cc:Work>
    </rdf:RDF>
  </metadata>
  <defs
     id="defs5698" />
  <sodipodi:namedview
     pagecolor="#ffffff"
     bordercolor="#666666"
     borderopacity="1"
     objecttolerance="10"
     gridtolerance="10"
     guidetolerance="10"
     inkscape:pageopacity="0"
     inkscape:pageshadow="2"
     inkscape:window-width="1920"
     inkscape:window-height="1017"
     id="namedview5696"
     showgrid="false"
     inkscape:zoom="0.4609375"
     inkscape:cx="224"
     inkscape:cy="256"
     inkscape:window-x="-8"
     inkscape:window-y="-8"
     inkscape:window-maximized="1"
     inkscape:current-layer="svg5694" />
  <g
     class="fa-group"
     id="g5692"
     transform="matrix(0.59375,0,0,0.59375,187,168)">
    <path
       class="fa-secondary"
       d="m 368,96 v 368 a 16,16 0 0 1 -16,16 H 320 A 16,16 0 0 1 304,464 V 96 Z"
       id="path5688"
       style="opacity:0.4;fill:#1d1c56;fill-opacity:1"
       inkscape:connector-curvature="0" />
    <path
       class="fa-primary"
       d="M 432,48 V 80 A 16,16 0 0 1 416,96 H 272 v 368 a 16,16 0 0 1 -16,16 H 224 A 16,16 0 0 1 208,464 V 352 h -32 a 160,160 0 0 1 0,-320 h 240 a 16,16 0 0 1 16,16 z"
       id="path5690"
       style="fill:#1d1c56;fill-opacity:1"
       inkscape:connector-curvature="0" />
  </g>
</svg>
