<?xml version="1.0" encoding="utf-8"?><svg width="100px" height="100px"  style="font-family: Times New Roman;font-size: 16px;" version="1.1" xmlns="http://www.w3.org/2000/svg" xmlns:xlink="http://www.w3.org/1999/xlink"><defs xmlns="http://www.w3.org/2000/svg"><clipPath id="id-302"><rect width="100" height="100"/></clipPath><linearGradient id="gradient-id-321" x1="1%" x2="99%" y1="59%" y2="41%"><stop stop-color="#474758" offset="0"/><stop stop-color="#474758" stop-opacity="1" offset="0.75"/><stop stop-color="#3cabff" stop-opacity="1" offset="0.755"/></linearGradient><filter id="filter-id-330" width="200%" height="200%" x="-50%" y="-50%"/><filter id="filter-id-351" width="200%" height="200%" x="-50%" y="-50%"/><clipPath id="id-382"><path d="M0,0 L70,0 L70,70 L0,70 L0,0"/></clipPath><clipPath id="id-1246"><rect width="70" height="70"/></clipPath><filter id="filter-id-307" width="200%" height="200%" x="-50%" y="-50%"><feGaussianBlur result="blurOut" in="SourceGraphic" stdDeviation="1.5"/><feOffset result="offsetBlur" dx="1" dy="1"/><feFlood flood-color="#000000" flood-opacity="0.5"/><feComposite in2="offsetBlur" operator="in"/><feMerge><feMergeNode/><feMergeNode in="SourceGraphic"/></feMerge></filter><filter id="filter-id-318" width="120%" height="120%" x="-10%" y="-10%"><feColorMatrix type="saturate" values="0"/></filter><filter id="filter-id-387" width="200%" height="200%" x="-50%" y="-50%"><feGaussianBlur result="blurOut" in="SourceGraphic" stdDeviation="1.5"/><feOffset result="offsetBlur" dx="1" dy="1"/><feFlood flood-color="#000000" flood-opacity="0.5"/><feComposite in2="offsetBlur" operator="in"/><feMerge><feMergeNode/><feMergeNode in="SourceGraphic"/></feMerge></filter></defs><g xmlns="http://www.w3.org/2000/svg" style=""><g fill="#ffffff" fill-opacity="0"><rect width="100" height="100"/></g><g><g role="region" clip-path="url(&quot;#id-302&quot;)" opacity="1" aria-describedby="id-279-description"><g transform="translate(15,15)"><g><g><g><g><g><g><g><g fill="#ffffff" fill-opacity="0"><rect width="70" height="70"/></g><g><g><g/></g><g><g/></g><g><g><g role="group" stroke-opacity="0" fill-opacity="1" fill="#1d1c56" stroke="#1d1c56" aria-describedby="id-379-description"><g><g clip-path="url(&quot;#id-382&quot;)"><g><g><g><g stroke-opacity="1" fill-opacity="1" fill="#1d1c56" stroke="#1d1c56" role="menuitem" focusable="true" transform="translate(0.7,64.8)"><g><g><path d="M0,0 L5.6,0 a0,0 0 0 1 0,0 L5.6,5.2 a0,0 0 0 1 -0,0 L0,5.2 a0,0 0 0 1 -0,-0 L0,0 a0,0 0 0 1 0,-0 Z"/></g></g></g><g stroke-opacity="1" fill-opacity="1" fill="#1d1c56" stroke="#1d1c56" role="menuitem" focusable="true" transform="translate(7.7,57.8)"><g><g><path d="M0,0 L5.6,0 a0,0 0 0 1 0,0 L5.6,12.2 a0,0 0 0 1 -0,0 L0,12.2 a0,0 0 0 1 -0,-0 L0,0 a0,0 0 0 1 0,-0 Z"/></g></g></g><g stroke-opacity="1" fill-opacity="1" fill="#1d1c56" stroke="#1d1c56" role="menuitem" focusable="true" transform="translate(14.7,35)"><g><g><path d="M0,0 L5.6,0 a0,0 0 0 1 0,0 L5.6,35 a0,0 0 0 1 -0,0 L0,35 a0,0 0 0 1 -0,-0 L0,0 a0,0 0 0 1 0,-0 Z"/></g></g></g><g stroke-opacity="1" fill-opacity="1" fill="#1d1c56" stroke="#1d1c56" role="menuitem" focusable="true" transform="translate(21.7,17.9)" id="id-1347"><g><g><path d="M0,0 L5.6,0 a0,0 0 0 1 0,0 L5.6,52.1 a0,0 0 0 1 -0,0 L0,52.1 a0,0 0 0 1 -0,-0 L0,0 a0,0 0 0 1 0,-0 Z"/></g></g></g><g stroke-opacity="1" fill-opacity="1" fill="#1d1c56" stroke="#1d1c56" role="menuitem" focusable="true" transform="translate(28.7,6.3)" id="id-1351"><g><g><path d="M0,0 L5.6,0 a0,0 0 0 1 0,0 L5.6,63.7 a0,0 0 0 1 -0,0 L0,63.7 a0,0 0 0 1 -0,-0 L0,0 a0,0 0 0 1 0,-0 Z"/></g></g></g><g stroke-opacity="1" fill-opacity="1" fill="#1d1c56" stroke="#1d1c56" role="menuitem" focusable="true" transform="translate(35.7,3.2)" id="id-1355"><g><g><path d="M0,0 L5.6,0 a0,0 0 0 1 0,0 L5.6,66.8 a0,0 0 0 1 -0,0 L0,66.8 a0,0 0 0 1 -0,-0 L0,0 a0,0 0 0 1 0,-0 Z"/></g></g></g><g stroke-opacity="1" fill-opacity="1" fill="#1d1c56" stroke="#1d1c56" role="menuitem" focusable="true" transform="translate(42.7,19.3)" id="id-1359"><g><g><path d="M0,0 L5.6,0 a0,0 0 0 1 0,0 L5.6,50.7 a0,0 0 0 1 -0,0 L0,50.7 a0,0 0 0 1 -0,-0 L0,0 a0,0 0 0 1 0,-0 Z"/></g></g></g><g stroke-opacity="1" fill-opacity="1" fill="#1d1c56" stroke="#1d1c56" role="menuitem" focusable="true" transform="translate(49.7,33.6)"><g><g><path d="M0,0 L5.6,0 a0,0 0 0 1 0,0 L5.6,36.4 a0,0 0 0 1 -0,0 L0,36.4 a0,0 0 0 1 -0,-0 L0,0 a0,0 0 0 1 0,-0 Z"/></g></g></g><g stroke-opacity="1" fill-opacity="1" fill="#1d1c56" stroke="#1d1c56" role="menuitem" focusable="true" transform="translate(56.7,52.2)"><g><g><path d="M0,0 L5.6,0 a0,0 0 0 1 0,0 L5.6,17.8 a0,0 0 0 1 -0,0 L0,17.8 a0,0 0 0 1 -0,-0 L0,0 a0,0 0 0 1 0,-0 Z"/></g></g></g><g stroke-opacity="1" fill-opacity="1" fill="#1d1c56" stroke="#1d1c56" role="menuitem" focusable="true" transform="translate(63.7,61.6)"><g><g><path d="M0,0 L5.6,0 a0,0 0 0 1 0,0 L5.6,8.4 a0,0 0 0 1 -0,0 L0,8.4 a0,0 0 0 1 -0,-0 L0,0 a0,0 0 0 1 0,-0 Z"/></g></g></g></g></g></g></g><g/></g><desc id="id-379-description">Series</desc></g></g></g><g clip-path="url(&quot;#id-1246&quot;)"><g><g fill="#1d1c56" stroke="#1d1c56"><g/></g></g></g><g><g><g><g/></g><g><g/></g></g></g><g><g/></g><g><g/></g><g role="button" focusable="true" opacity="0" visibility="hidden" aria-hidden="true" transform="translate(30,-3)" aria-labelledby="id-293-title"><g fill="#6794dc" stroke="#ffffff" fill-opacity="1" stroke-opacity="0" transform="translate(0,8)"><path d="M17,0 L18,0 a17,17 0 0 1 17,17 L35,17 a17,17 0 0 1 -17,17 L17,34 a17,17 0 0 1 -17,-17 L0,17 a17,17 0 0 1 17,-17 Z"/></g><g transform="translate(9,9)"><g stroke="#ffffff" style="pointer-events: none;" transform="translate(0,8)"><path d=" M0,0  L11,0 " transform="translate(2.5,7.5)"/></g><g fill="#000000" style="pointer-events: none;" transform="translate(17,8)"><g display="none"/></g></g><title id="id-293-title">Zoom Out</title></g></g></g><g><g><g><g><g fill="#000000" transform="translate(0,35) rotate(-90)"><g display="none"/></g><g stroke="#000000" stroke-opacity="0.15" fill="none" transform="translate(0,70)" opacity="1"><path d=" M0,0  L70,0 " transform="translate(-0.5,-0.5)"/></g><g><g><g fill="#000000" fill-opacity="0" opacity="0" stroke-opacity="0" style="pointer-events: none;" transform="translate(0,35)" display="none"><g transform="translate(-21,-8.508)" style="user-select: none;"><text x="0" y="17.015625" dy="-4.594"><tspan>L</tspan></text></g></g></g></g><g stroke="#000000" stroke-opacity="0" fill="none" style="pointer-events: none;"><path d=" M0,0  L0,70 " transform="translate(-0.5,-0.5)"/></g></g></g></g></g><g transform="translate(70,0)"><g/></g></g></g><g><g/></g><g transform="translate(0,70)"><g><g><g><g stroke="#000000" stroke-opacity="0" fill="none" style="pointer-events: none;"><path d=" M0,0  L70,0 " transform="translate(-0.5,-0.5)"/></g><g><g><g fill="#000000" fill-opacity="0" opacity="0" stroke-opacity="0" style="pointer-events: none;" transform="translate(35,0)" display="none"><g transform="translate(-5.5,10)" style="user-select: none;"><text x="0" y="17.015625" dy="-4.594"><tspan>L</tspan></text></g></g></g></g><g stroke="#000000" stroke-opacity="0.15" fill="none" display="none" transform="translate(70,-70)" opacity="0" visibility="hidden" aria-hidden="true"><path d=" M0,0  L0,70 " transform="translate(-0.5,-0.5)"/></g><g fill="#000000" transform="translate(35,0)"><g display="none"/></g></g></g></g></g></g></g></g></g></g><desc id="id-279-description">Chart</desc></g><g><g><g role="tooltip" visibility="hidden" opacity="0"><g fill="#ffffff" fill-opacity="0.9" stroke-width="1" stroke-opacity="1" stroke="#ffffff" filter="url(&quot;#filter-id-307&quot;)" style="pointer-events: none;" transform="translate(0,6)"><path d="M3,0 L3,0 L0,-6 L13,0 L21,0 a3,3 0 0 1 3,3 L24,8 a3,3 0 0 1 -3,3 L3,11 a3,3 0 0 1 -3,-3 L0,3 a3,3 0 0 1 3,-3"/></g><g><g fill="#ffffff" style="pointer-events: none;" transform="translate(12,6)"><g transform="translate(0,7)" display="none"/></g></g></g><g visibility="hidden" display="none" style="pointer-events: none;"><g fill="#ffffff" opacity="1"><rect width="100" height="100"/></g><g><g transform="translate(50,50)"><g><g stroke-opacity="1" fill="#f3f3f3" fill-opacity="0.8"><g><g><path d=" M53,0  a53,53,0,0,1,-106,0 a53,53,0,0,1,106,0 M42,0  a42,42,0,0,0,-84,0 a42,42,0,0,0,84,0 L42,0 "/></g></g></g><g stroke-opacity="1" fill="#000000" fill-opacity="0.2"><g><g><path d=" M50,0  a50,50,0,0,1,-100,0 a50,50,0,0,1,100,0 M45,0  a45,45,0,0,0,-90,0 a45,45,0,0,0,90,0 L45,0 "/></g></g></g><g fill="#000000" fill-opacity="0.4"><g transform="translate(-19,-8.5)" style="user-select: none;"><text x="0" y="17" dy="-4.59"><tspan>100%</tspan></text></g></g></g></g></g></g><g opacity="0" aria-labelledby="id-318-title" filter="url(&quot;#filter-id-318&quot;)" style="cursor: pointer;" transform="translate(0,79)" visibility="hidden" aria-hidden="true"><g fill="#ffffff" opacity="0"><rect width="66" height="21"/></g><g><g shape-rendering="auto" fill="none" stroke-opacity="1" stroke-width="1.7999999999999998" stroke="#3cabff"><path d=" M15,15  C17.4001,15 22.7998,15.0001 27,15 C31.2002,14.9999 33.2999,6 36,6 C38.7001,6 38.6999,10.5 40.5,10.5 C42.3001,10.5 42.2999,6 45,6 C47.7001,6 50.9999,14.9999 54,15 C57.0002,15.0001 58.7999,15 60,15"/></g><g shape-rendering="auto" fill="none" stroke-opacity="1" stroke-width="1.7999999999999998" stroke="url(&quot;#gradient-id-321&quot;)"><path d=" M6,15  C8.2501,15 9.7498,15.0001 15,15 C20.2502,14.9999 20.7748,3.6 27,3.6 C33.2252,3.6 33.8998,14.9999 39.9,15 C45.9002,15.0001 45.9748,15 51,15 C56.0252,15 57.7499,15 60,15"/></g></g><title id="id-318-title">Chart created using amCharts library</title></g><g role="tooltip" visibility="hidden" opacity="0"><g fill="#000000" fill-opacity="1" stroke-width="1" stroke-opacity="1" stroke="#000000" style="pointer-events: none;" transform="translate(15,85)"><path d="M0,0 L20,0 a0,0 0 0 1 0,0 L20,10 a0,0 0 0 1 -0,0 L0,10 a0,0 0 0 1 -0,-0 L0,0 a0,0 0 0 1 0,-0"/></g><g><g fill="#ffffff" style="pointer-events: none;" transform="translate(25,85)"><g transform="translate(0,5)" display="none"/></g></g></g><g role="tooltip" visibility="hidden" opacity="0"><g fill="#000000" fill-opacity="1" stroke-width="1" stroke-opacity="1" stroke="#000000" style="pointer-events: none;" transform="translate(-25,15)"><path d="M0,0 L20,0 a0,0 0 0 1 0,0 L20,0 L20,0 L25,0 L20,10 L20,10 a0,0 0 0 1 -0,0 L0,10 a0,0 0 0 1 -0,-0 L0,0 a0,0 0 0 1 0,-0"/></g><g><g fill="#ffffff" style="pointer-events: none;" transform="translate(-15,15)"><g transform="translate(0,5)" display="none"/></g></g></g><g role="tooltip" opacity="0" aria-describedby="id-1359" transform="translate(60.5,59.65)" aria-hidden="true" visibility="hidden"><g fill="#1d1c56" fill-opacity="0.9" stroke-width="1" stroke-opacity="1" stroke="#ffffff" filter="url(&quot;#filter-id-387&quot;)" style="pointer-events: none;" transform="translate(-80,-14.008)"><path d="M3,0 L71,0 a3,3 0 0 1 3,3 L74,3 L74,9.008 L80,14.008 L74,19.008 L74,25.016 a3,3 0 0 1 -3,3 L3,28.016 a3,3 0 0 1 -3,-3 L0,3 a3,3 0 0 1 3,-3"/></g><g><g fill="#ffffff" style="pointer-events: none;" transform="translate(-43,-14.0078)"><g transform="translate(-25,7)" style="user-select: none;"><text x="0" y="17.015625" dy="-4.594"><tspan>v7: </tspan><tspan style="font-weight:bold">145</tspan></text></g></g></g></g></g></g></g></g></svg>