<?xml version="1.0" encoding="UTF-8" standalone="no"?>
<svg
   xmlns:dc="http://purl.org/dc/elements/1.1/"
   xmlns:cc="http://creativecommons.org/ns#"
   xmlns:rdf="http://www.w3.org/1999/02/22-rdf-syntax-ns#"
   xmlns:svg="http://www.w3.org/2000/svg"
   xmlns="http://www.w3.org/2000/svg"
   xmlns:sodipodi="http://sodipodi.sourceforge.net/DTD/sodipodi-0.dtd"
   xmlns:inkscape="http://www.inkscape.org/namespaces/inkscape"
   aria-hidden="true"
   focusable="false"
   data-prefix="fad"
   data-icon="h2"
   class="svg-inline--fa fa-h2 fa-w-18"
   role="img"
   viewBox="0 0 640 640"
   version="1.1"
   id="svg5123"
   sodipodi:docname="h2-icon.svg"
   width="640"
   height="640"
   inkscape:version="0.92.2 (5c3e80d, 2017-08-06)">
  <metadata
     id="metadata5129">
    <rdf:RDF>
      <cc:Work
         rdf:about="">
        <dc:format>image/svg+xml</dc:format>
        <dc:type
           rdf:resource="http://purl.org/dc/dcmitype/StillImage" />
        <dc:title></dc:title>
      </cc:Work>
    </rdf:RDF>
  </metadata>
  <defs
     id="defs5127" />
  <sodipodi:namedview
     pagecolor="#ffffff"
     bordercolor="#666666"
     borderopacity="1"
     objecttolerance="10"
     gridtolerance="10"
     guidetolerance="10"
     inkscape:pageopacity="0"
     inkscape:pageshadow="2"
     inkscape:window-width="1920"
     inkscape:window-height="1017"
     id="namedview5125"
     showgrid="false"
     inkscape:zoom="0.4609375"
     inkscape:cx="288"
     inkscape:cy="256"
     inkscape:window-x="-8"
     inkscape:window-y="-8"
     inkscape:window-maximized="1"
     inkscape:current-layer="svg5123" />
  <g
     class="fa-group"
     id="g5121"
     transform="matrix(0.83333333,0,0,0.83333333,80.000001,106.66659)">
    <path
       class="fa-secondary"
       d="M 304,96 H 205.06 A 13.06,13.06 0 0 0 192,109.06 v 37.88 A 13.06,13.06 0 0 0 205.06,160 H 224 v 64 H 96 v -64 h 18.94 A 13.06,13.06 0 0 0 128,146.94 V 112 A 16,16 0 0 0 112,96 H 16 A 16,16 0 0 0 0,112 v 34.94 A 13.06,13.06 0 0 0 13.06,160 H 32 V 352 H 13.06 A 13.06,13.06 0 0 0 0,365.06 V 400 a 16,16 0 0 0 16,16 h 98.94 A 13.06,13.06 0 0 0 128,402.94 V 365.06 A 13.06,13.06 0 0 0 114.94,352 H 96 v -64 h 128 v 64 H 205.06 A 13.06,13.06 0 0 0 192,365.06 V 400 a 16,16 0 0 0 16,16 h 96 a 16,16 0 0 0 16,-16 V 365.06 A 13.06,13.06 0 0 0 306.94,352 H 288 V 160 h 18.94 A 13.06,13.06 0 0 0 320,146.94 V 112 A 16,16 0 0 0 304,96 Z"
       id="path5117"
       style="opacity:0.4;fill:#1d1c56;fill-opacity:1"
       inkscape:connector-curvature="0" />
    <path
       class="fa-primary"
       d="M 560,352 H 440.79 C 457.79,309.05 576,285.43 576,192.38 576,132.55 528.33,96 469.14,96 c -43.83,0 -81.41,21.38 -103.42,57 a 15.66,15.66 0 0 0 4.75,21.4 l 28.26,18.6 a 16.15,16.15 0 0 0 21.86,-3.83 c 10.77,-14.86 24.94,-26 43.85,-26 18.91,0 38.22,10.46 38.22,33.84 0,52.18 -142.1,73.21 -142.1,184.56 a 155.06,155.06 0 0 0 1.71,20.66 15.94,15.94 0 0 0 15.87,13.77 H 560 a 16,16 0 0 0 16,-16 v -32 a 16,16 0 0 0 -16,-16 z"
       id="path5119"
       style="fill:#1d1c56;fill-opacity:1"
       inkscape:connector-curvature="0" />
  </g>
</svg>
