<svg xmlns="http://www.w3.org/2000/svg" viewBox="0 0 104.21 42.91"><defs><style>.cls-1{fill:#fcd6b0}.cls-2{fill:#e83e41}.cls-3{fill:#60c1ca}</style></defs><g id="Layer_2" data-name="Layer 2"><g id="Layer_1-2" data-name="Layer 1"><path id="Rectangle_219" data-name="Rectangle 219" class="cls-1" d="M82.75 15.32a6.13 6.13 0 0 1 6.13 6.13 6.12 6.12 0 0 1-6.13 6.13 6.13 6.13 0 0 1-6.13-6.13 6.14 6.14 0 0 1 6.13-6.13z"/><path id="Rectangle_220" data-name="Rectangle 220" class="cls-1" d="M82.75 30.65a6.12 6.12 0 0 1 6.13 6.13 6.12 6.12 0 0 1-6.13 6.13 6.13 6.13 0 0 1-6.13-6.13 6.13 6.13 0 0 1 6.13-6.13z"/><path id="Rectangle_221" data-name="Rectangle 221" class="cls-1" d="M98.08 15.32a6.14 6.14 0 0 1 6.13 6.13 6.13 6.13 0 0 1-6.13 6.13A6.12 6.12 0 0 1 92 21.45a6.13 6.13 0 0 1 6.08-6.13z"/><path id="Rectangle_215" data-name="Rectangle 215" class="cls-2" d="M67.43 0a6.13 6.13 0 0 1 6.13 6.13 6.13 6.13 0 0 1-6.13 6.13 6.12 6.12 0 0 1-6.13-6.13A6.12 6.12 0 0 1 67.43 0z"/><path id="Rectangle_216" data-name="Rectangle 216" class="cls-2" d="M67.43 15.32a6.14 6.14 0 0 1 6.13 6.13 6.13 6.13 0 0 1-6.13 6.13 6.12 6.12 0 0 1-6.13-6.13 6.13 6.13 0 0 1 6.13-6.13z"/><path id="Rectangle_217" data-name="Rectangle 217" class="cls-2" d="M67.43 30.65a6.13 6.13 0 0 1 6.13 6.13 6.13 6.13 0 0 1-6.13 6.13 6.12 6.12 0 0 1-6.13-6.13 6.12 6.12 0 0 1 6.13-6.13z"/><path id="Rectangle_218" data-name="Rectangle 218" class="cls-2" d="M82.75 0a6.12 6.12 0 0 1 6.13 6.13 6.12 6.12 0 0 1-6.13 6.13 6.13 6.13 0 0 1-6.13-6.13A6.13 6.13 0 0 1 82.75 0z"/><path id="Rectangle_222" data-name="Rectangle 222" class="cls-2" d="M52.1 0a6.12 6.12 0 0 1 6.13 6.13 6.12 6.12 0 0 1-6.13 6.13A6.13 6.13 0 0 1 46 6.13 6.13 6.13 0 0 1 52.1 0z"/><path id="Rectangle_223" data-name="Rectangle 223" class="cls-3" d="M6.13 15.32h46a6.13 6.13 0 0 1 6.13 6.13 6.12 6.12 0 0 1-6.13 6.13h-46A6.12 6.12 0 0 1 0 21.45a6.13 6.13 0 0 1 6.13-6.13z"/><path id="Rectangle_224" data-name="Rectangle 224" class="cls-3" d="M21.45 0h15.33a6.12 6.12 0 0 1 6.13 6.13 6.12 6.12 0 0 1-6.13 6.13H21.45a6.13 6.13 0 0 1-6.13-6.13A6.13 6.13 0 0 1 21.45 0z"/><path id="Rectangle_225" data-name="Rectangle 225" class="cls-3" d="M21.45 30.65H52.1a6.12 6.12 0 0 1 6.13 6.13 6.12 6.12 0 0 1-6.13 6.13H21.45a6.13 6.13 0 0 1-6.13-6.13 6.13 6.13 0 0 1 6.13-6.13z"/></g></g></svg>