<?xml version="1.0" encoding="UTF-8" standalone="no"?>
<svg
   xmlns:dc="http://purl.org/dc/elements/1.1/"
   xmlns:cc="http://creativecommons.org/ns#"
   xmlns:rdf="http://www.w3.org/1999/02/22-rdf-syntax-ns#"
   xmlns:svg="http://www.w3.org/2000/svg"
   xmlns="http://www.w3.org/2000/svg"
   xmlns:sodipodi="http://sodipodi.sourceforge.net/DTD/sodipodi-0.dtd"
   xmlns:inkscape="http://www.inkscape.org/namespaces/inkscape"
   aria-hidden="true"
   focusable="false"
   data-prefix="fad"
   data-icon="function"
   class="svg-inline--fa fa-function fa-w-20"
   role="img"
   viewBox="0 0 640 640"
   version="1.1"
   id="svg835"
   sodipodi:docname="f-icon.svg"
   width="640"
   height="640"
   inkscape:version="0.92.2 (5c3e80d, 2017-08-06)">
  <metadata
     id="metadata841">
    <rdf:RDF>
      <cc:Work
         rdf:about="">
        <dc:format>image/svg+xml</dc:format>
        <dc:type
           rdf:resource="http://purl.org/dc/dcmitype/StillImage" />
        <dc:title></dc:title>
      </cc:Work>
    </rdf:RDF>
  </metadata>
  <defs
     id="defs839" />
  <sodipodi:namedview
     pagecolor="#ffffff"
     bordercolor="#666666"
     borderopacity="1"
     objecttolerance="10"
     gridtolerance="10"
     guidetolerance="10"
     inkscape:pageopacity="0"
     inkscape:pageshadow="2"
     inkscape:window-width="1920"
     inkscape:window-height="1017"
     id="namedview837"
     showgrid="false"
     inkscape:zoom="0.4140625"
     inkscape:cx="-285.3982"
     inkscape:cy="-145.9813"
     inkscape:window-x="-8"
     inkscape:window-y="-8"
     inkscape:window-maximized="1"
     inkscape:current-layer="svg835" />
  <g
     class="fa-group"
     id="g833"
     transform="matrix(0.75000044,0,0,0.75000044,81.811321,176.89109)">
    <path
       class="fa-secondary"
       d="m 332.17491,87.702453 -24.69,-21 c -7,-6 -17.83,-5.09 -23.38,2.23 a 307.46,307.46 0 0 0 0,371.679997 c 5.56,7.32 16.38,8.18 23.38,2.23 l 24.69,-21 c 6.59,-5.61 7.31,-15.2 2.15,-22.14 a 242.8,242.8 0 0 1 0,-289.89 c 5.17,-6.91 4.45,-16.509997 -2.15,-22.109997 z m 242.89,-18.75 c -5.56,-7.32 -16.38,-8.18 -23.38,-2.23 l -24.69,21 c -6.59,5.61 -7.31,15.199997 -2.15,22.139997 a 242.82,242.82 0 0 1 0,289.9 c -5.17,6.94 -4.45,16.54 2.15,22.14 l 24.69,21 c 7,5.95 17.83,5.09 23.38,-2.23 a 307.48,307.48 0 0 0 0,-371.689997 z"
       id="path829"
       style="opacity:0.4;fill:#1d1c56;fill-opacity:1"
       inkscape:connector-curvature="0" />
    <path
       class="fa-primary"
       d="m 474.83491,254.79245 46.06,-46.06 a 16,16 0 0 0 0,-22.63 l -22.62,-22.62 a 16,16 0 0 0 -22.63,0 l -46.06,46.06 -46.06,-46.06 a 16,16 0 0 0 -22.63,0 l -22.62,22.62 a 16,16 0 0 0 0,22.63 l 46.06,46.06 -46.06,46.06 a 16,16 0 0 0 0,22.63 l 22.62,22.62 a 16,16 0 0 0 22.63,0 l 46.06,-46.06 46.06,46.06 a 16,16 0 0 0 22.63,0 l 22.62,-22.62 a 16,16 0 0 0 0,-22.63 z m -269.25,-319.999997 h -48 a 104,104 0 0 0 -104.000004,104 v 63.999997 h -40 a 16,16 0 0 0 -16.0000003,16 v 48 a 16,16 0 0 0 16.0000003,16 h 40 v 128 a 24.07,24.07 0 0 1 -24,24 h -16 a 16,16 0 0 0 -16.0000003,16 v 48 a 16,16 0 0 0 16.0000003,16 h 16 a 104,104 0 0 0 104.000004,-104 v -128 h 40 a 16,16 0 0 0 16,-16 v -48 a 16,16 0 0 0 -16,-16 h -40 V 38.792453 a 24.07,24.07 0 0 1 24,-24 h 48 a 16,16 0 0 0 16,-16.0000001 V -49.207547 a 16,16 0 0 0 -16,-16 z"
       id="path831"
       style="fill:#1d1c56;fill-opacity:1"
       inkscape:connector-curvature="0" />
  </g>
</svg>
