<?xml version="1.0" encoding="utf-8"?><svg width="100px" height="100px"  style="font-family: Times New Roman;font-size: 16px;" version="1.1" xmlns="http://www.w3.org/2000/svg" xmlns:xlink="http://www.w3.org/1999/xlink"><defs xmlns="http://www.w3.org/2000/svg"><clipPath id="id-45"><rect width="100" height="100"/></clipPath><linearGradient id="gradient-id-64" x1="1%" x2="99%" y1="59%" y2="41%"><stop stop-color="#474758" offset="0"/><stop stop-color="#474758" stop-opacity="1" offset="0.75"/><stop stop-color="#3cabff" stop-opacity="1" offset="0.755"/></linearGradient><clipPath id="id-71"/><filter id="filter-id-50" width="200%" height="200%" x="-50%" y="-50%"><feGaussianBlur result="blurOut" in="SourceGraphic" stdDeviation="1.5"/><feOffset result="offsetBlur" dx="1" dy="1"/><feFlood flood-color="#000000" flood-opacity="0.5"/><feComposite in2="offsetBlur" operator="in"/><feMerge><feMergeNode/><feMergeNode in="SourceGraphic"/></feMerge></filter><filter id="filter-id-61" width="120%" height="120%" x="-10%" y="-10%"><feColorMatrix type="saturate" values="0"/></filter><filter id="filter-id-76" width="200%" height="200%" x="-50%" y="-50%"><feGaussianBlur result="blurOut" in="SourceGraphic" stdDeviation="1.5"/><feOffset result="offsetBlur" dx="1" dy="1"/><feFlood flood-color="#000000" flood-opacity="0.5"/><feComposite in2="offsetBlur" operator="in"/><feMerge><feMergeNode/><feMergeNode in="SourceGraphic"/></feMerge></filter></defs><g xmlns="http://www.w3.org/2000/svg" style=""><g fill="#ffffff" fill-opacity="0"><rect width="100" height="100"/></g><g><g role="region" clip-path="url(&quot;#id-45&quot;)" opacity="1" aria-describedby="id-22-description"><g><g><g><g><g><g transform="translate(50,50)"><g><g role="group" aria-describedby="id-68-description" opacity="1"><g><g clip-path="url(&quot;#id-71&quot;)"><g/></g><g/><g><g><g stroke-opacity="1" stroke="#ffffff" stroke-width="2" role="menuitem" focusable="true" fill="#1d1c56" id="id-903" transform="translate(0,0)"><g><g><path d=" M0,0  L0,-35.3636  A1,1,0,0,1,0.9999,-36.3499 a36.36363636363636,36.36363636363636,0,0,1,8.67,71.4042 A1,1,0,0,1,8.4631,34.336 L0,0 "/></g><g/></g></g><g stroke-opacity="1" stroke="#ffffff" stroke-width="2" role="menuitem" focusable="true" fill="#ef4c4c" id="id-912" transform="translate(0,0)"><g><g><path d=" M0,0  L8.4631,34.336  A1,1,0,0,1,7.7282,35.5329 a36.36363636363636,36.36363636363636,0,0,1,-38.2116,-55.3591 A1,1,0,0,1,-29.1037,-20.0888 L0,0 "/></g><g/></g></g><g stroke-opacity="1" stroke="#ffffff" stroke-width="2" role="menuitem" focusable="true" fill="#57c4c9" id="id-920" transform="translate(0,0)"><g><g><path d=" M0,0  L-32.0964,-22.1545  A1,1,0,0,1,-32.341,-23.5384 a40,40,0,0,1,31.3411,-16.4491 A1,1,0,0,1,0,-39 L0,0 "/></g><g/></g></g></g></g><g><g/></g><g><g/></g></g><desc id="id-68-description">Series</desc></g></g></g><g transform="translate(50,50)"><g><g><g/></g></g></g></g></g></g></g></g><desc id="id-22-description">Chart</desc></g><g><g><g role="tooltip" visibility="hidden" opacity="0"><g fill="#ffffff" fill-opacity="0.9" stroke-width="1" stroke-opacity="1" stroke="#ffffff" filter="url(&quot;#filter-id-50&quot;)" style="pointer-events: none;" transform="translate(0,6)"><path d="M3,0 L3,0 L0,-6 L13,0 L21,0 a3,3 0 0 1 3,3 L24,8 a3,3 0 0 1 -3,3 L3,11 a3,3 0 0 1 -3,-3 L0,3 a3,3 0 0 1 3,-3"/></g><g><g fill="#ffffff" style="pointer-events: none;" transform="translate(12,6)"><g transform="translate(0,7)" display="none"/></g></g></g><g visibility="hidden" display="none" style="pointer-events: none;"><g fill="#ffffff" opacity="1"><rect width="100" height="100"/></g><g><g transform="translate(50,50)"><g><g stroke-opacity="1" fill="#f3f3f3" fill-opacity="0.8"><g><g><path d=" M53,0  a53,53,0,0,1,-106,0 a53,53,0,0,1,106,0 M42,0  a42,42,0,0,0,-84,0 a42,42,0,0,0,84,0 L42,0 "/></g></g></g><g stroke-opacity="1" fill="#000000" fill-opacity="0.2"><g><g><path d=" M50,0  a50,50,0,0,1,-100,0 a50,50,0,0,1,100,0 M45,0  a45,45,0,0,0,-90,0 a45,45,0,0,0,90,0 L45,0 "/></g></g></g><g fill="#000000" fill-opacity="0.4"><g transform="translate(-19,-8.5)" style="user-select: none;"><text x="0" y="17" dy="-4.59"><tspan>100%</tspan></text></g></g></g></g></g></g><g opacity="0" aria-labelledby="id-61-title" filter="url(&quot;#filter-id-61&quot;)" style="cursor: pointer;" transform="translate(0,79)" visibility="hidden" aria-hidden="true"><g fill="#ffffff" opacity="0"><rect width="66" height="21"/></g><g><g shape-rendering="auto" fill="none" stroke-opacity="1" stroke-width="1.7999999999999998" stroke="#3cabff"><path d=" M15,15  C17.4001,15 22.7998,15.0001 27,15 C31.2002,14.9999 33.2999,6 36,6 C38.7001,6 38.6999,10.5 40.5,10.5 C42.3001,10.5 42.2999,6 45,6 C47.7001,6 50.9999,14.9999 54,15 C57.0002,15.0001 58.7999,15 60,15"/></g><g shape-rendering="auto" fill="none" stroke-opacity="1" stroke-width="1.7999999999999998" stroke="url(&quot;#gradient-id-64&quot;)"><path d=" M6,15  C8.2501,15 9.7498,15.0001 15,15 C20.2502,14.9999 20.7748,3.6 27,3.6 C33.2252,3.6 33.8998,14.9999 39.9,15 C45.9002,15.0001 45.9748,15 51,15 C56.0252,15 57.7499,15 60,15"/></g></g><title id="id-61-title">Chart created using amCharts library</title></g><g role="tooltip" opacity="0" aria-describedby="id-903" transform="translate(68.9517,47.6988)" aria-hidden="true" visibility="hidden"><g fill="#1d1c56" fill-opacity="0.9" stroke-width="1" stroke-opacity="1" stroke="#ffffff" filter="url(&quot;#filter-id-76&quot;)" style="pointer-events: none;" transform="translate(-68.952,-34.016)"><path d="M3,0 L135,0 a3,3 0 0 1 3,3 L138,25.016 a3,3 0 0 1 -3,3 L135,28.016 L73.952,28.016 L68.952,34.016 L63.952,28.016 L3,28.016 a3,3 0 0 1 -3,-3 L0,3 a3,3 0 0 1 3,-3"/></g><g><g fill="#ffffff" style="pointer-events: none;" transform="translate(0.0483,-34.0156)"><g transform="translate(-57,7)" style="user-select: none;"><text x="0" y="17.015625" dy="-4.594"><tspan>USA: 46.2% (30)</tspan></text></g></g></g></g></g></g></g></g></svg>