<?xml version="1.0" encoding="utf-8"?><svg width="100px" height="100px"  style="font-family: Times New Roman;font-size: 16px;" version="1.1" xmlns="http://www.w3.org/2000/svg" xmlns:xlink="http://www.w3.org/1999/xlink"><defs xmlns="http://www.w3.org/2000/svg"><clipPath id="id-115"><rect width="100" height="100"/></clipPath><linearGradient id="gradient-id-134" x1="1%" x2="99%" y1="59%" y2="41%"><stop stop-color="#474758" offset="0"/><stop stop-color="#474758" stop-opacity="1" offset="0.75"/><stop stop-color="#3cabff" stop-opacity="1" offset="0.755"/></linearGradient><clipPath id="id-141"/><filter id="filter-id-120" width="200%" height="200%" x="-50%" y="-50%"><feGaussianBlur result="blurOut" in="SourceGraphic" stdDeviation="1.5"/><feOffset result="offsetBlur" dx="1" dy="1"/><feFlood flood-color="#000000" flood-opacity="0.5"/><feComposite in2="offsetBlur" operator="in"/><feMerge><feMergeNode/><feMergeNode in="SourceGraphic"/></feMerge></filter><filter id="filter-id-131" width="120%" height="120%" x="-10%" y="-10%"><feColorMatrix type="saturate" values="0"/></filter><filter id="filter-id-146" width="200%" height="200%" x="-50%" y="-50%"><feGaussianBlur result="blurOut" in="SourceGraphic" stdDeviation="1.5"/><feOffset result="offsetBlur" dx="1" dy="1"/><feFlood flood-color="#000000" flood-opacity="0.5"/><feComposite in2="offsetBlur" operator="in"/><feMerge><feMergeNode/><feMergeNode in="SourceGraphic"/></feMerge></filter></defs><g xmlns="http://www.w3.org/2000/svg" style=""><g fill="#ffffff" fill-opacity="0"><rect width="100" height="100"/></g><g><g role="region" clip-path="url(&quot;#id-115&quot;)" opacity="1" aria-describedby="id-92-description"><g><g><g><g><g><g transform="translate(50,50)"><g><g role="group" aria-describedby="id-138-description" opacity="1"><g><g clip-path="url(&quot;#id-141&quot;)"><g/></g><g/><g><g><g stroke-opacity="1" stroke="#ffffff" stroke-width="2" role="menuitem" focusable="true" fill="#1d1c56" id="id-928" transform="translate(0,0)"><g><g><path d=" M0,-21  L0,-37.1818  A1,1,0,0,1,0.9999,-38.1687 a38.18181818181818,38.18181818181818,0,0,1,9.1053,74.989 A1,1,0,0,1,8.8982,36.1014 L5.0256,20.3898  A1.025,1.025,0,0,1,5.751,19.1553 a20,20,0,0,0,-4.7513,-39.1303 A1.025,1.025,0,0,1,0,-21 L0,-21 "/></g><g/></g></g><g stroke-opacity="1" stroke="#ffffff" stroke-width="2" role="menuitem" focusable="true" fill="#ef4c4c" id="id-937" transform="translate(0,0)"><g><g><path d=" M5.0256,20.3898  L8.8982,36.1014  A1,1,0,0,1,8.1635,37.2989 a38.18181818181818,38.18181818181818,0,0,1,-40.1438,-58.1583 A1,1,0,0,1,-30.6,-21.1217 L-17.2827,-11.9294  A1.025,1.025,0,0,1,-17.007,-10.5244 a20,20,0,0,0,20.8167,30.1582 A1.025,1.025,0,0,1,5.0256,20.3898 L5.0256,20.3898 "/></g><g/></g></g><g stroke-opacity="1" stroke="#ffffff" stroke-width="2" role="menuitem" focusable="true" fill="#57c4c9"><g><g><path d=" M-17.2827,-11.9294  L-32.0964,-22.1545  A1,1,0,0,1,-32.341,-23.5384 a40,40,0,0,1,31.3411,-16.4491 A1,1,0,0,1,0,-39 L0,-21  A1.025,1.025,0,0,1,-0.9997,-19.975 a20,20,0,0,0,-14.8715,7.8052 A1.025,1.025,0,0,1,-17.2827,-11.9294 L-17.2827,-11.9294 "/></g><g/></g></g></g></g><g><g/></g><g><g/></g></g><desc id="id-138-description">Series</desc></g></g></g><g transform="translate(50,50)"><g><g><g/></g></g></g></g></g></g></g></g><desc id="id-92-description">Chart</desc></g><g><g><g role="tooltip" visibility="hidden" opacity="0"><g fill="#ffffff" fill-opacity="0.9" stroke-width="1" stroke-opacity="1" stroke="#ffffff" filter="url(&quot;#filter-id-120&quot;)" style="pointer-events: none;" transform="translate(0,6)"><path d="M3,0 L3,0 L0,-6 L13,0 L21,0 a3,3 0 0 1 3,3 L24,8 a3,3 0 0 1 -3,3 L3,11 a3,3 0 0 1 -3,-3 L0,3 a3,3 0 0 1 3,-3"/></g><g><g fill="#ffffff" style="pointer-events: none;" transform="translate(12,6)"><g transform="translate(0,7)" display="none"/></g></g></g><g visibility="hidden" display="none" style="pointer-events: none;"><g fill="#ffffff" opacity="1"><rect width="100" height="100"/></g><g><g transform="translate(50,50)"><g><g stroke-opacity="1" fill="#f3f3f3" fill-opacity="0.8"><g><g><path d=" M53,0  a53,53,0,0,1,-106,0 a53,53,0,0,1,106,0 M42,0  a42,42,0,0,0,-84,0 a42,42,0,0,0,84,0 L42,0 "/></g></g></g><g stroke-opacity="1" fill="#000000" fill-opacity="0.2"><g><g><path d=" M50,0  a50,50,0,0,1,-100,0 a50,50,0,0,1,100,0 M45,0  a45,45,0,0,0,-90,0 a45,45,0,0,0,90,0 L45,0 "/></g></g></g><g fill="#000000" fill-opacity="0.4"><g transform="translate(-19,-8.5)" style="user-select: none;"><text x="0" y="17" dy="-4.59"><tspan>100%</tspan></text></g></g></g></g></g></g><g opacity="0" aria-labelledby="id-131-title" filter="url(&quot;#filter-id-131&quot;)" style="cursor: pointer;" transform="translate(0,79)" visibility="hidden" aria-hidden="true"><g fill="#ffffff" opacity="0"><rect width="66" height="21"/></g><g><g shape-rendering="auto" fill="none" stroke-opacity="1" stroke-width="1.7999999999999998" stroke="#3cabff"><path d=" M15,15  C17.4001,15 22.7998,15.0001 27,15 C31.2002,14.9999 33.2999,6 36,6 C38.7001,6 38.6999,10.5 40.5,10.5 C42.3001,10.5 42.2999,6 45,6 C47.7001,6 50.9999,14.9999 54,15 C57.0002,15.0001 58.7999,15 60,15"/></g><g shape-rendering="auto" fill="none" stroke-opacity="1" stroke-width="1.7999999999999998" stroke="url(&quot;#gradient-id-134&quot;)"><path d=" M6,15  C8.2501,15 9.7498,15.0001 15,15 C20.2502,14.9999 20.7748,3.6 27,3.6 C33.2252,3.6 33.8998,14.9999 39.9,15 C45.9002,15.0001 45.9748,15 51,15 C56.0252,15 57.7499,15 60,15"/></g></g><title id="id-131-title">Chart created using amCharts library</title></g><g role="tooltip" opacity="0" aria-describedby="id-928" transform="translate(80.32274379069091,46.31815231083636)" aria-hidden="true" visibility="hidden"><g fill="#1d1c56" fill-opacity="0.9" stroke-width="1" stroke-opacity="1" stroke="#ffffff" filter="url(&quot;#filter-id-146&quot;)" style="pointer-events: none;" transform="translate(-75.323,-34.016)"><path d="M3,0 L135,0 a3,3 0 0 1 3,3 L138,25.016 a3,3 0 0 1 -3,3 L135,28.016 L80.323,28.016 L75.323,34.016 L70.323,28.016 L3,28.016 a3,3 0 0 1 -3,-3 L0,3 a3,3 0 0 1 3,-3"/></g><g><g fill="#ffffff" style="pointer-events: none;" transform="translate(-6.3227,-34.0156)"><g transform="translate(-57,7)" style="user-select: none;"><text x="0" y="17.015625" dy="-4.594"><tspan>USA: 46.2% (30)</tspan></text></g></g></g></g></g></g></g></g></svg>